<svg width="16" height="12" viewBox="0 0 16 12" fill="none" xmlns="http://www.w3.org/2000/svg">
<path d="M14 4.85731C12.8954 4.85731 12 3.9619 12 2.85736C12 1.75283 12.8954 0.857422 14 0.857422C15.1046 0.857422 16 1.75283 16 2.85736C16 3.9619 15.1046 4.85731 14 4.85731Z" fill="#F2F2F3" fill-opacity="0.64"/>
<path d="M6 2.85736C6 3.9619 6.89543 4.85731 8 4.85731C9.10457 4.85731 10 3.9619 10 2.85736C10 1.75283 9.10457 0.857422 8 0.857422C6.89543 0.857422 6 1.75283 6 2.85736Z" fill="#F2F2F3" fill-opacity="0.64"/>
<path d="M8.74228e-08 2.85736C1.35705e-07 3.9619 0.89543 4.85731 2 4.85731C3.10457 4.85731 4 3.9619 4 2.85736C4 1.75283 3.10457 0.857422 2 0.857422C0.89543 0.857423 3.91405e-08 1.75283 8.74228e-08 2.85736Z" fill="#F2F2F3" fill-opacity="0.64"/>
<path d="M14 11.1425C12.8954 11.1425 12 10.2471 12 9.14252C12 8.03798 12.8954 7.14258 14 7.14258C15.1046 7.14258 16 8.03798 16 9.14252C16 10.2471 15.1046 11.1425 14 11.1425Z" fill="#F2F2F3" fill-opacity="0.64"/>
<path d="M6 9.14252C6 10.2471 6.89543 11.1425 8 11.1425C9.10457 11.1425 10 10.2471 10 9.14252C10 8.03798 9.10457 7.14258 8 7.14258C6.89543 7.14258 6 8.03798 6 9.14252Z" fill="#F2F2F3" fill-opacity="0.64"/>
<path d="M8.74228e-08 9.14252C1.35705e-07 10.2471 0.89543 11.1425 2 11.1425C3.10457 11.1425 4 10.2471 4 9.14252C4 8.03798 3.10457 7.14258 2 7.14258C0.89543 7.14258 3.91405e-08 8.03798 8.74228e-08 9.14252Z" fill="#F2F2F3" fill-opacity="0.64"/>
</svg>
