<svg width="16" height="16" viewBox="0 0 16 16" fill="none" xmlns="http://www.w3.org/2000/svg">
<path fill-rule="evenodd" clip-rule="evenodd" d="M3.29289 2.54289C3 2.83579 3 3.30719 3 4.25V11.75C3 12.6928 3 13.1642 3.29289 13.4571C3.58579 13.75 4.05719 13.75 5 13.75C5.94281 13.75 6.41421 13.75 6.70711 13.4571C7 13.1642 7 12.6928 7 11.75V4.25C7 3.30719 7 2.83579 6.70711 2.54289C6.41421 2.25 5.94281 2.25 5 2.25C4.05719 2.25 3.58579 2.25 3.29289 2.54289ZM9.29289 2.54289C9 2.83579 9 3.30719 9 4.25V11.75C9 12.6928 9 13.1642 9.29289 13.4571C9.58579 13.75 10.0572 13.75 11 13.75C11.9428 13.75 12.4142 13.75 12.7071 13.4571C13 13.1642 13 12.6928 13 11.75V4.25C13 3.30719 13 2.83579 12.7071 2.54289C12.4142 2.25 11.9428 2.25 11 2.25C10.0572 2.25 9.58579 2.25 9.29289 2.54289Z" fill="#F2F2F3"/>
</svg>
