<svg width="20" height="21" viewBox="0 0 20 21" fill="none" xmlns="http://www.w3.org/2000/svg">
<path fill-rule="evenodd" clip-rule="evenodd" d="M10 2.25C5.44365 2.25 1.75 5.94365 1.75 10.5C1.75 15.0563 5.44365 18.75 10 18.75C14.5563 18.75 18.25 15.0563 18.25 10.5C18.25 5.94365 14.5563 2.25 10 2.25ZM0.25 10.5C0.25 5.11522 4.61522 0.75 10 0.75C15.3848 0.75 19.75 5.11522 19.75 10.5C19.75 15.8848 15.3848 20.25 10 20.25C4.61522 20.25 0.25 15.8848 0.25 10.5Z" fill="#798AA3"/>
<path d="M10 16.5C10.6213 16.5 11.125 15.9963 11.125 15.375C11.125 14.7537 10.6213 14.25 10 14.25C9.37868 14.25 8.875 14.7537 8.875 15.375C8.875 15.9963 9.37868 16.5 10 16.5Z" fill="#798AA3"/>
<path fill-rule="evenodd" clip-rule="evenodd" d="M8.70844 5.50691C9.32514 5.25146 10.0037 5.18463 10.6584 5.31485C11.3131 5.44508 11.9145 5.76651 12.3865 6.23852C12.8585 6.71052 13.1799 7.31189 13.3102 7.96657C13.4404 8.62126 13.3735 9.29986 13.1181 9.91656C12.8626 10.5333 12.4301 11.0604 11.875 11.4312C11.531 11.6611 11.1494 11.8246 10.75 11.9156V12C10.75 12.4142 10.4142 12.75 10 12.75C9.58579 12.75 9.25 12.4142 9.25 12V11.25C9.25 11.0511 9.32902 10.8603 9.46967 10.7197C9.61032 10.579 9.80109 10.5 10 10.5C10.3708 10.5 10.7334 10.39 11.0417 10.184C11.35 9.97798 11.5904 9.68514 11.7323 9.34253C11.8742 8.99992 11.9113 8.62292 11.839 8.25921C11.7666 7.89549 11.588 7.5614 11.3258 7.29918C11.0636 7.03695 10.7295 6.85838 10.3658 6.78603C10.0021 6.71368 9.62508 6.75081 9.28247 6.89273C8.93986 7.03464 8.64702 7.27497 8.44099 7.58331C8.23497 7.89165 8.125 8.25416 8.125 8.625C8.125 9.03922 7.78921 9.375 7.375 9.375C6.96079 9.375 6.625 9.03922 6.625 8.625C6.625 7.95749 6.82294 7.30497 7.19379 6.74995C7.56464 6.19494 8.09174 5.76235 8.70844 5.50691Z" fill="#798AA3"/>
</svg>
