<svg width="19" height="18" viewBox="0 0 19 18" fill="none" xmlns="http://www.w3.org/2000/svg">
	<g id="clipboard">
		<path id="Icon" d="M12.5 3C13.1975 3 13.5462 3 13.8323 3.07667C14.6088 3.28472 15.2153 3.8912 15.4233 4.66766C15.5 4.95378 15.5 5.30252 15.5 6V12.9C15.5 14.1601 15.5 14.7902 15.2548 15.2715C15.039 15.6948 14.6948 16.039 14.2715 16.2548C13.7902 16.5 13.1601 16.5 11.9 16.5H7.1C5.83988 16.5 5.20982 16.5 4.72852 16.2548C4.30516 16.039 3.96095 15.6948 3.74524 15.2715C3.5 14.7902 3.5 14.1601 3.5 12.9V6C3.5 5.30252 3.5 4.95378 3.57667 4.66766C3.78472 3.8912 4.3912 3.28472 5.16766 3.07667C5.45378 3 5.80252 3 6.5 3M7.7 4.5H11.3C11.72 4.5 11.9301 4.5 12.0905 4.41825C12.2316 4.34635 12.3463 4.23161 12.4183 4.09049C12.5 3.93006 12.5 3.72004 12.5 3.3V2.7C12.5 2.27996 12.5 2.06994 12.4183 1.90951C12.3463 1.76839 12.2316 1.65365 12.0905 1.58175C11.9301 1.5 11.72 1.5 11.3 1.5H7.7C7.27996 1.5 7.06994 1.5 6.90951 1.58175C6.76839 1.65365 6.65365 1.76839 6.58174 1.90951C6.5 2.06994 6.5 2.27996 6.5 2.7V3.3C6.5 3.72004 6.5 3.93006 6.58174 4.09049C6.65365 4.23161 6.76839 4.34635 6.90951 4.41825C7.06994 4.5 7.27996 4.5 7.7 4.5Z" stroke="#F2F2F3" stroke-opacity="0.64" stroke-width="1.5" stroke-linecap="round" stroke-linejoin="round" />
	</g>
</svg>
