<svg width="16" height="16" viewBox="0 0 16 16" fill="none" xmlns="http://www.w3.org/2000/svg">
<path fill-rule="evenodd" clip-rule="evenodd" d="M5.33782 1.86812C5.34579 1.87344 5.35379 1.87877 5.36181 1.88411L12.3943 6.57244C12.5978 6.70807 12.7864 6.83382 12.9313 6.95068C13.0826 7.07264 13.2608 7.24175 13.3634 7.48916C13.499 7.81616 13.499 8.18367 13.3634 8.51068C13.2608 8.75808 13.0826 8.92719 12.9313 9.04915C12.7865 9.166 12.5978 9.29175 12.3943 9.42737L5.33784 14.1317C5.08912 14.2975 4.86547 14.4467 4.67569 14.5495C4.48578 14.6524 4.22511 14.77 3.92086 14.7519C3.53169 14.7286 3.17219 14.5362 2.93698 14.2253C2.7531 13.9822 2.70636 13.7001 2.68665 13.485C2.66696 13.2701 2.66697 13.0013 2.66699 12.7023L2.66699 3.32633C2.66699 3.31669 2.66699 3.30708 2.66699 3.29751C2.66697 2.99857 2.66696 2.72978 2.68665 2.51483C2.70636 2.29972 2.7531 2.01759 2.93698 1.77452C3.17219 1.4636 3.53169 1.2712 3.92086 1.24796C4.22511 1.2298 4.48578 1.34741 4.67569 1.45032C4.86546 1.55317 5.08911 1.70229 5.33782 1.86812Z" fill="#F2F2F3"/>
</svg>
