<svg width="16" height="16" viewBox="0 0 16 16" fill="none" xmlns="http://www.w3.org/2000/svg">
	<g clip-path="url(#clip0_4179_11632)">
		<path d="M7.33203 2.66812H4.53203C3.41193 2.66812 2.85187 2.66812 2.42405 2.88611C2.04773 3.07785 1.74176 3.38382 1.55002 3.76014C1.33203 4.18796 1.33203 4.74802 1.33203 5.86812V11.4681C1.33203 12.5882 1.33203 13.1483 1.55002 13.5761C1.74176 13.9524 2.04773 14.2584 2.42405 14.4501C2.85187 14.6681 3.41193 14.6681 4.53203 14.6681H10.132C11.2521 14.6681 11.8122 14.6681 12.24 14.4501C12.6163 14.2584 12.9223 13.9524 13.114 13.5761C13.332 13.1483 13.332 12.5882 13.332 11.4681V8.66812M5.33201 10.6681H6.44838C6.7745 10.6681 6.93756 10.6681 7.09101 10.6313C7.22706 10.5986 7.35711 10.5447 7.47641 10.4716C7.61097 10.3892 7.72627 10.2739 7.95687 10.0433L14.332 3.66812C14.8843 3.11584 14.8843 2.22041 14.332 1.66812C13.7797 1.11584 12.8843 1.11583 12.332 1.66812L5.95685 8.04328C5.72625 8.27388 5.61095 8.38919 5.52849 8.52374C5.45539 8.64304 5.40152 8.7731 5.36885 8.90915C5.33201 9.0626 5.33201 9.22566 5.33201 9.55178V10.6681Z" stroke="#F2F2F3" stroke-opacity="0.64" stroke-width="1.41176" stroke-linecap="round" stroke-linejoin="round" />
	</g>
</svg>
